<!-- Generated by IcoMoon.io -->
<svg version="1.1" xmlns="http://www.w3.org/2000/svg" width="32" height="32" viewBox="0 0 32 32"><title>airbnb</title>
<path d="M16 26.56q-1.6 1.707-2.88 2.56-1.707 1.28-3.413 1.387l-0.427 0.107q-1.813 0.32-3.307-0.48t-2.4-2.347-0.907-3.36q0-1.6 1.493-5.013 0.96-2.133 3.733-7.68l2.88-5.76q0.96-2.24 1.813-3.2 1.28-1.493 3.413-1.493 1.493 0 2.507 0.64t1.76 1.813q0.533 0.853 1.28 2.667 3.84 7.467 5.547 11.307 1.6 3.413 2.133 4.907 0.213 0.96 0.213 1.92 0 1.387-0.533 2.613t-1.6 2.187q-2.133 1.707-4.907 1.28-3.2-0.64-6.4-4.053zM27.627 24.427q0-1.173-1.387-4.16-0.747-1.92-3.307-6.827l-3.413-6.933q-0.853-1.707-1.387-2.347-0.853-0.96-2.133-0.96t-2.133 0.853q-0.533 0.533-1.493 2.56l-3.307 6.72q-2.453 5.013-3.307 6.933-1.387 2.987-1.387 4.267 0 1.92 1.387 3.253t3.733 1.013q1.387-0.213 2.88-1.387 0.853-0.64 2.347-2.24-2.453-3.093-3.307-5.653-0.747-2.347-0.213-4.053t1.813-2.56 2.88-0.853 2.88 0.853 1.76 2.56-0.267 4.053q-0.747 2.56-3.2 5.653 2.027 2.24 4.053 3.093 1.707 0.747 3.2 0.373t2.4-1.547 0.907-2.667zM12.907 17.067q0 2.453 3.093 6.507 3.093-4.053 3.093-6.507 0-1.6-0.907-2.453t-2.187-0.853-2.187 0.853-0.907 2.453z"></path>
</svg>
