<!-- Generated by IcoMoon.io -->
<svg version="1.1" xmlns="http://www.w3.org/2000/svg" width="32" height="32" viewBox="0 0 32 32"><title>apple</title>
<path d="M22.080 0h0.32q0.213 3.093-1.707 5.227-1.067 1.067-1.92 1.6-1.28 0.747-2.773 0.64-0.107-1.6 0.427-2.88 0.427-1.067 1.28-2.24 0.747-0.853 1.92-1.493t2.453-0.853zM29.12 23.467q-0.853 2.453-2.667 5.227l-0.427 0.533q-1.067 1.28-1.707 1.813-1.173 0.96-2.453 0.96-0.96 0-2.56-0.64l-1.173-0.427q-0.747-0.213-1.493-0.213t-1.6 0.213q-0.427 0.107-1.28 0.427-1.387 0.533-2.133 0.64h-0.747q-1.6-0.32-3.307-2.24-4.053-5.013-4.693-11.627v-1.493q0.107-2.453 1.28-4.533t2.88-3.147q2.453-1.387 4.693-1.067 1.067 0.107 2.24 0.64l0.32 0.107q1.28 0.533 1.867 0.533t1.653-0.533l0.747-0.213q1.28-0.427 2.027-0.64 1.173-0.213 2.347 0 3.52 0.533 5.227 2.987-1.707 1.173-2.56 2.56-1.067 1.813-0.853 4.107t1.387 3.787q1.067 1.387 2.987 2.24z"></path>
</svg>
