<!-- Generated by IcoMoon.io -->
<svg version="1.1" xmlns="http://www.w3.org/2000/svg" width="32" height="32" viewBox="0 0 32 32"><title>behance</title>
<path d="M16.533 19.84q0-1.813-0.907-3.093t-2.72-1.813q2.667-1.28 2.667-4.053t-1.813-3.947q-1.6-0.96-4.48-0.96h-9.28v19.627h9.6q2.88 0 4.8-1.387 2.133-1.493 2.133-4.373zM4.267 9.28h4.053q1.28 0 2.080 0.533t0.8 1.76-0.693 1.813-1.973 0.587h-4.267v-4.693zM4.267 22.293v-5.547h4.693q3.093 0 3.093 2.88 0 1.387-0.907 2.027t-2.293 0.64h-4.587zM25.067 26.027q2.667 0 4.267-1.173t2.453-3.627h-3.52q-0.32 0.853-1.227 1.333t-1.867 0.48q-1.707 0-2.56-0.907t-0.853-2.613h10.24q0.107-2.347-0.64-4.267t-2.4-3.040-3.893-1.12q-3.307 0-5.333 2.080t-2.027 5.387 1.973 5.387 5.387 2.080zM24.96 13.973q1.387 0 2.187 0.8t0.907 2.293h-6.4q0.107-1.387 1.013-2.24t2.293-0.853zM20.907 7.040h8v1.92h-8v-1.92z"></path>
</svg>
