<!-- Generated by IcoMoon.io -->
<svg version="1.1" xmlns="http://www.w3.org/2000/svg" width="32" height="32" viewBox="0 0 32 32"><title>blogger</title>
<path d="M9.173 29.227q0.853 0.107 6.507 0.107t6.4-0.107q2.773-0.427 5.013-2.453 0.747-0.747 1.28-1.707 0.32-0.747 0.853-2.027 0.107-0.64 0.16-4.587t-0.053-4.267q-0.32-0.96-0.853-1.067-0.107-0.213-1.387-0.213-1.067 0-1.6-0.213-0.427-0.32-0.64-0.693t-0.213-1.013q0-2.88-2.347-5.547-1.6-1.707-3.947-2.347-0.427-0.213-1.227-0.32t-2.72-0.107q-3.2 0-4.16 0.107-1.173 0-2.24 0.427-1.92 0.853-3.253 2.4t-1.867 3.573q-0.213 1.067-0.213 6.293v5.867q0.107 1.387 0.213 2.24 0.853 2.133 2.613 3.68t3.68 1.973zM21.76 19.733q0.427 0.533 0.373 1.28t-0.693 1.067l-0.96 0.213h-2.56q-7.040 0.107-7.36-0.213-0.747-0.427-0.96-1.067-0.107-0.213 0.053-0.64t0.427-0.64 1.013-0.213l8.64-0.107q1.173 0 1.493 0.053t0.533 0.267zM10.133 10.24q0.213-0.213 0.427-0.32t0.96-0.213l4.48 0.107q0.32 0 0.64 0.213 0.853 0.427 0.853 1.333t-0.853 1.333l-2.88 0.107q-1.173 0-2.667-0.107h-0.427q-0.747-0.32-0.96-1.12t0.427-1.333z"></path>
</svg>
