<!-- Generated by IcoMoon.io -->
<svg version="1.1" xmlns="http://www.w3.org/2000/svg" width="32" height="32" viewBox="0 0 32 32"><title>discord</title>
<path d="M7.040 22.72q5.653 2.133 9.92 2.027 5.013-0.107 9.707-2.987 0 0.107-0.533 0.693t-1.493 1.12q-1.28 0.747-2.88 1.28l1.707 2.133q3.413 0 6.293-1.92 1.067-0.64 1.653-1.867t0.48-2.507q-0.427-4.16-2.133-8.853-1.173-2.773-3.467-4.533t-5.173-2.080h-0.853l-0.213 0.213q2.773 0.853 5.013 2.24 1.173 0.64 1.707 1.067-5.12-2.56-10.933-2.56t-11.040 2.453l0.747-0.533q1.067-0.747 2.347-1.387 1.813-0.853 3.947-1.387l-0.213-0.213q-1.067 0-1.493 0.107-2.773 0.427-4.907 2.187t-3.093 4.32q-1.813 4.907-2.133 9.067-0.107 1.28 0.427 2.4t1.6 1.867q2.88 1.92 6.080 1.92l1.707-2.133q-1.387-0.427-2.56-1.28-0.853-0.533-1.387-1.12t-0.533-0.693l0.64 0.213q0.213 0.213 0.64 0.427zM10.88 20.373q-1.173 0-1.973-0.907t-0.8-2.080 0.853-2.027 2.027-0.853 1.973 0.907 0.747 2.133-0.853 2.027-1.973 0.8zM20.907 20.373q-1.173 0-1.973-0.907t-0.8-2.080 0.853-2.027 1.973-0.853 1.92 0.907 0.8 2.133-0.8 2.027-1.973 0.8z"></path>
</svg>
