<!-- Generated by IcoMoon.io -->
<svg version="1.1" xmlns="http://www.w3.org/2000/svg" width="32" height="32" viewBox="0 0 32 32"><title>disqus</title>
<path d="M16.427 12.267h-1.6v7.36h0.427q1.92 0 2.987-0.427 1.92-0.853 1.92-3.307 0.107-1.6-0.96-2.613t-2.773-1.013zM16.533 1.6q-3.733 0-6.827 1.813t-5.013 4.853-2.24 6.667 1.28 7.040l-2.453 5.76 6.187-0.853q3.307 2.88 7.467 3.413 3.84 0.427 7.52-1.28t5.813-5.013q2.347-3.52 2.347-8 0-3.947-1.867-7.253t-5.12-5.227-7.093-1.92zM24.32 16q0 3.2-2.187 5.173t-5.813 1.973h-5.333v-14.4h5.333q3.733 0 5.867 1.973t2.133 5.28z"></path>
</svg>
