<!-- Generated by IcoMoon.io -->
<svg version="1.1" xmlns="http://www.w3.org/2000/svg" width="32" height="32" viewBox="0 0 32 32"><title>github</title>
<path d="M16 0.64q-4.373 0-8.053 2.133t-5.813 5.76-2.133 7.893q0 3.413 1.387 6.4t3.893 5.227 5.6 3.307q0.64 0.107 0.853-0.16t0.213-0.693v-2.667q-1.493 0.32-2.667 0.107-0.96-0.213-1.6-0.747-0.533-0.427-0.747-0.96l-0.213-0.533q-0.32-0.853-0.693-1.333t-0.8-0.693l-0.32-0.213q-0.64-0.427-0.587-0.64t0.373-0.213l0.427-0.107q0.96 0.107 1.707 0.853 0.427 0.427 0.64 0.747 0.96 1.6 2.56 1.707 0.96 0.107 2.133-0.32 0.107-1.493 1.067-2.133-3.307-0.427-5.013-1.813-2.347-1.92-2.347-5.973 0-2.133 1.6-4.267-0.32-0.427-0.427-1.387 0-1.28 0.533-2.773h0.533q0.533 0 1.387 0.32 1.173 0.427 2.56 1.28 1.707-0.427 3.947-0.427t4.053 0.427q1.28-0.853 2.453-1.28 0.853-0.32 1.387-0.32h0.533q0.747 2.24 0.107 4.16 1.6 1.6 1.6 4.267 0 4.053-2.347 5.973-1.707 1.387-5.013 1.813 1.067 1.067 1.067 2.88v4.267q0 0.427 0.267 0.693t0.8 0.16q3.2-1.067 5.707-3.253t3.893-5.227 1.387-6.453q0-4.267-2.133-7.893t-5.76-5.76-8-2.133z"></path>
</svg>
