<!-- Generated by IcoMoon.io -->
<svg version="1.1" xmlns="http://www.w3.org/2000/svg" width="32" height="32" viewBox="0 0 32 32"><title>google</title>
<path d="M1.28 16q0-3.947 2.027-7.307t5.387-5.387 7.307-2.027q5.013 0 8.96 3.093l-3.52 4.373q-1.173-0.853-2.613-1.333t-2.827-0.48q-2.453 0-4.533 1.227t-3.307 3.307-1.227 4.533 1.227 4.533 3.307 3.307 4.533 1.227q2.987 0 5.387-1.76t3.253-4.533h-8.64v-5.547h14.613v2.773q0 4.053-1.92 7.413t-5.28 5.333-7.413 1.973-7.413-1.973-5.333-5.333-1.973-7.413z"></path>
</svg>
