<!-- Generated by IcoMoon.io -->
<svg version="1.1" xmlns="http://www.w3.org/2000/svg" width="32" height="32" viewBox="0 0 32 32"><title>instagram</title>
<path d="M16 8.427q-2.027 0-3.787 1.013t-2.773 2.773-1.013 3.787 1.013 3.787 2.773 2.773 3.787 1.013 3.787-1.013 2.773-2.773 1.013-3.787-1.013-3.787-2.773-2.773-3.787-1.013zM16 20.907q-2.027 0-3.467-1.44t-1.44-3.467 1.44-3.467 3.467-1.44 3.467 1.44 1.44 3.467-1.44 3.467-3.467 1.44zM21.973 1.493q-2.027-0.107-5.973-0.107t-5.973 0.107-3.413 0.533q-1.707 0.533-2.88 1.707t-1.707 2.667-0.64 3.52q-0.107 1.28-0.107 4.267v3.733q0 2.987 0.107 4.16 0.107 2.027 0.64 3.52t1.707 2.667 2.773 1.707q1.387 0.533 3.52 0.64 1.28 0.107 4.16 0.107h1.813q4.693 0 6.187-0.107 2.027-0.213 3.413-0.747 2.133-0.853 3.413-2.773 1.493-2.027 1.707-5.12v-12.053q-0.64-8.107-8.747-8.427zM26.24 26.24q-1.173 1.28-3.307 1.6-1.493 0.213-5.973 0.213h-2.24q-4.48 0-5.973-0.213-2.027-0.32-3.253-1.547t-1.653-3.467q-0.213-1.28-0.107-4.907v-3.733q0-3.627 0.213-5.12 0.32-2.453 1.6-3.627 1.387-1.387 4.373-1.6h1.493q2.027-0.107 4.48-0.107h1.6q3.627 0 5.12 0.213 2.453 0.32 3.627 1.6 1.493 1.387 1.6 4.373l0.107 2.027 0.107 4.907q0 4.693-0.213 6.187-0.32 2.133-1.6 3.2zM23.893 9.92q0.747 0 1.227-0.48t0.48-1.28-0.48-1.28-1.227-0.48-1.227 0.533-0.48 1.227 0.427 1.227 1.28 0.533z"></path>
</svg>
