<!-- Generated by IcoMoon.io -->
<svg version="1.1" xmlns="http://www.w3.org/2000/svg" width="32" height="32" viewBox="0 0 32 32"><title>never</title>
<path d="M9.3 6.933c-0.767 0.8-1.833 2.5-4.567 7.4-0.433 0.833-1.4 2.467-2.067 3.667-2.433 4.167-2.667 4.7-2.667 5.533 0 0.5 0.367 1.167 0.9 1.633 0.9 0.767 1.133 0.8 5.7 0.833 5.467 0 4.867 0.267 7.433-3.567 1.467-2.233 1.567-3.467 0.333-4.567-0.533-0.467-0.667-0.367-1.867 1.733-2.033 3.567-1.767 3.4-5.733 3.4-1.867 0-3.433-0.1-3.433-0.2 0-0.3 1.8-3.567 4.467-8.1 1.2-2.067 2.2-3.9 2.2-4.033s0.233-0.433 0.5-0.667c0.567-0.467 0.967-0.1 1.9 1.667 0.233 0.467 1.333 2.467 2.433 4.5 1.1 2 2.467 4.533 3 5.6 1.1 2.167 2.933 4.233 3.7 4.233 1.467 0 2.4-1.267 6.4-8.333 0.433-0.833 1.567-2.733 2.433-4.267 1.433-2.4 1.633-3 1.633-4.633 0-2.667-0.2-2.733-5.833-2.733-5.367-0.033-5.367-0.033-7.267 3.033-1.567 2.467-1.8 3.367-1.1 4.433 0.3 0.467 0.7 0.833 0.833 0.833 0.167 0 0.833-0.867 1.5-1.933 2.233-3.667 1.8-3.4 5.7-3.4 1.933 0 3.5 0.1 3.5 0.233 0 0.167-0.7 1.467-1.533 2.933-0.867 1.467-2 3.5-2.567 4.5-0.533 1-1.3 2.367-1.7 3-0.367 0.633-0.833 1.433-1.033 1.8-0.167 0.367-0.5 0.7-0.667 0.767-0.3 0.1-2.333-3.267-5.667-9.4-2.733-5.033-3.233-5.8-3.967-6.3-1.167-0.733-1.9-0.633-2.9 0.4z"></path>
</svg>
