<!-- Generated by IcoMoon.io -->
<svg version="1.1" xmlns="http://www.w3.org/2000/svg" width="32" height="32" viewBox="0 0 32 32"><title>odnoklassniki</title>
<path d="M6.293 17.173q-0.64 1.173-0.107 1.92t2.347 1.813q1.067 0.747 2.88 1.173 1.067 0.213 2.88 0.533h0.107l-0.107 0.107q0.107-0.107 0.107 0l-6.293 5.973q-0.853 0.747-0.48 1.813t1.44 1.44 2.027-0.48l4.907-4.8 4.907 4.8q0.96 0.853 2.027 0.48t1.44-1.44-0.48-1.813l-3.413-3.2q-3.2-3.093-2.88-2.88 3.627-0.213 5.867-1.707 1.813-1.067 2.347-1.813t-0.107-1.92q-0.427-0.853-1.387-1.067t-2.24 0.747l-0.747 0.427q-0.96 0.533-2.133 0.853-1.493 0.533-3.2 0.533t-3.307-0.533q-1.173-0.32-2.133-0.853l-0.64-0.427q-1.28-0.96-2.24-0.747t-1.387 1.067zM16 16.107q2.347 0 4.267-1.067t3.040-2.933 1.12-4.053-1.12-4.053-3.093-2.933-4.267-1.067-4.213 1.067-3.040 2.933-1.12 4.107 1.12 4.053 3.093 2.88 4.213 1.067zM16 4.16q1.707 0 2.933 1.12t1.227 2.773-1.227 2.88-2.933 1.227-2.933-1.173-1.227-2.88 1.227-2.827 2.933-1.12z"></path>
</svg>
