<!-- Generated by IcoMoon.io -->
<svg version="1.1" xmlns="http://www.w3.org/2000/svg" width="32" height="32" viewBox="0 0 32 32"><title>pinterest</title>
<path d="M16.427 1.28q-3.947 0-6.827 1.6-2.773 1.387-4.16 3.84t-1.387 5.44q0 2.027 1.013 4.053t2.613 2.667q0.533 0.213 0.64-0.053t0.427-1.653l0.107-0.533q0-0.427-0.213-0.533-1.173-1.387-1.28-3.413t0.853-4 2.773-3.147q2.027-1.28 4.8-1.28 3.093 0 5.12 1.6 1.707 1.387 2.293 3.733t0.053 4.693-2.027 3.893-3.52 1.547q-1.387 0-2.24-0.96t-0.533-2.24q0.213-0.853 0.747-2.453 0.853-2.453 0.853-3.413 0-1.387-0.853-2.027t-2.027-0.373-2.027 1.333-0.853 2.88q0 1.067 0.32 2.027l0.427 0.64-2.133 8.853q-0.64 1.92-0.107 5.973l0.107 0.533q0 0.107 0.107 0.16t0.213-0.053l0.32-0.32q2.24-3.52 2.773-5.333 0.32-0.853 1.067-4.267 0.533 0.853 1.76 1.493t2.507 0.64q2.773 0 4.96-1.493t3.413-4 1.28-5.547-1.44-5.387-4.107-3.733-5.813-1.387z"></path>
</svg>
