<!-- Generated by IcoMoon.io -->
<svg version="1.1" xmlns="http://www.w3.org/2000/svg" width="32" height="32" viewBox="0 0 32 32"><title>quora</title>
<path d="M22.4 25.28q2.667-1.707 4.267-4.533t1.6-6.24-1.653-6.293-4.48-4.533-6.133-1.653-6.133 1.653-4.48 4.533-1.653 6.293 1.653 6.293 4.48 4.587 6.133 1.707q1.493 0 2.88-0.427 1.067 1.813 2.453 2.56 1.707 0.853 4.267 0.32v-2.133q0 0.213-0.693 0t-1.44-0.747-1.067-1.387zM22.293 16.32q0 2.987-1.707 5.44-1.173-1.28-2.667-1.92-1.6-0.747-3.52-0.533v2.453l0.533 0.107q0.64 0.213 1.173 0.64 0.853 0.533 1.387 1.493l-0.32 0.107q-0.747 0.213-1.173 0.213-1.707 0-3.147-1.067t-2.293-2.88-0.853-3.947v-3.307q0-2.133 0.853-3.893t2.293-2.827 3.147-1.067 3.147 1.067 2.293 2.827 0.853 4v3.093z"></path>
</svg>
