<!-- Generated by IcoMoon.io -->
<svg version="1.1" xmlns="http://www.w3.org/2000/svg" width="32" height="32" viewBox="0 0 32 32"><title>snapchat</title>
<path d="M26.667 25.28q1.173-0.107 2.133-0.427 1.493-0.533 1.707-1.173 0.213-0.32 0-0.587t-0.533-0.267q-1.707-0.32-3.2-1.493-1.067-0.96-1.92-2.133-0.533-0.96-0.533-1.173-0.533-0.853 0-1.28 0.213-0.32 1.28-0.64 1.28-0.427 1.76-0.96t0.267-1.067-0.907-0.747-1.227 0q-1.173 0.533-1.6 0.213v-0.213q0.107-2.133 0.107-3.2 0-2.027-0.533-3.093-1.28-2.667-3.947-3.84-2.347-1.173-5.013-0.747t-4.373 2.133q-1.28 1.067-1.76 2.293t-0.587 2.827q0 0.96 0.213 3.2v0.747q-0.32 0.107-0.693 0.053t-0.853-0.267-0.693-0.213q-0.427 0-0.907 0.267t-0.587 0.693q-0.107 0.853 1.493 1.707l0.64 0.213q0.96 0.32 1.28 0.64t-0.107 1.173q-0.747 1.707-2.347 3.093t-3.307 1.707q-0.32 0-0.48 0.32t-0.053 0.533q0.533 1.387 3.947 1.707 0.107 0.32 0.213 0.853t0.267 0.8 0.587 0.267l0.64-0.107q0.96-0.213 1.493-0.213 0.853 0 1.6 0.32 0.427 0.107 1.28 0.64l0.427 0.213q1.173 0.853 1.92 1.173 1.067 0.427 2.133 0.32 1.173 0.107 2.347-0.32 0.853-0.427 1.92-1.28l0.213-0.107q0.96-0.64 1.707-0.853 1.067-0.213 2.773 0.107 0.96 0.213 1.227-0.053t0.373-0.853 0.213-0.8v-0.107z"></path>
</svg>
