<!-- Generated by IcoMoon.io -->
<svg version="1.1" xmlns="http://www.w3.org/2000/svg" width="32" height="32" viewBox="0 0 32 32"><title>soundcloud</title>
<path d="M26.88 14.72q-0.64 0-1.067 0.107-0.107-2.24-1.387-4.107t-3.2-2.933-4.16-1.067q-0.533 0-0.8 0.267t-0.267 0.8v16q0 0.32 0.32 0.693t0.747 0.373h10.027q2.027 0 3.52-1.493t1.44-3.627-1.547-3.573-3.627-1.44zM12.053 9.6v13.973q0 0.427 0.267 0.747t0.747 0.32 0.8-0.267 0.32-0.8v-13.973q0-0.427-0.32-0.747t-0.8-0.32-0.747 0.32-0.267 0.747zM8 13.547v10.027q0 0.427 0.32 0.747t0.8 0.32 0.747-0.267 0.267-0.8v-10.027q0-0.32-0.32-0.693t-0.747-0.373-0.747 0.373-0.32 0.8v-0.107zM4.053 23.68q0 0.427 0.267 0.747t0.747 0.373 0.8-0.267 0.32-0.853v-9.92q0-0.427-0.32-0.747t-0.8-0.32-0.747 0.267-0.267 0.587v10.133zM1.067 24.64q0.427 0 0.747-0.267t0.32-0.8v-5.973q0-0.427-0.32-0.747t-0.747-0.32-0.747 0.32-0.32 0.747v5.973q0 0.533 0.267 0.8t0.8 0.267z"></path>
</svg>
