<!-- Generated by IcoMoon.io -->
<svg version="1.1" xmlns="http://www.w3.org/2000/svg" width="32" height="32" viewBox="0 0 32 32"><title>spotify</title>
<path d="M16 32q4.373 0 8.053-2.133t5.813-5.813 2.133-8.053-2.133-8.053-5.813-5.813-8.053-2.133-8.053 2.133-5.813 5.813-2.133 8.053 2.133 8.053 5.813 5.813 8.053 2.133zM22.507 23.573q-0.213 0-1.067-0.427-2.347-1.173-4.373-1.6-3.733-0.747-8.533 0.213l-0.853 0.107q-0.533 0-0.8-0.48t-0.107-1.013 0.8-0.64q9.067-2.027 15.36 1.707 0.533 0.32 0.587 0.853t-0.213 0.907-0.8 0.373zM24.32 19.307q-0.107 0-0.213 0.053t-0.64-0.267q-3.093-1.92-7.253-2.453t-8.107 0.533q-0.213 0-0.427 0.107h-0.32q-0.747 0-1.12-0.533t-0.16-1.12 0.96-0.8q4.693-1.28 9.44-0.747t8.373 2.667q0.32 0.213 0.48 0.533t0.16 0.853-0.373 0.853-0.8 0.32zM5.973 9.28q3.093-0.853 6.88-0.907t7.413 0.693q3.84 0.747 6.507 2.347 0.747 0.427 0.853 1.12t-0.32 1.28-1.173 0.587q-0.32 0-0.64-0.213l-0.213-0.107q-2.133-1.28-5.387-1.92t-6.613-0.64-5.92 0.747l-0.853 0.107q-0.533 0-0.96-0.427t-0.48-1.067 0.213-1.013 0.693-0.587z"></path>
</svg>
