<!-- Generated by IcoMoon.io -->
<svg version="1.1" xmlns="http://www.w3.org/2000/svg" width="32" height="32" viewBox="0 0 32 32"><title>tiktok</title>
<path d="M28.907 8.64q-2.453 0-4.373-1.493-2.133-1.493-2.773-4.373-0.107-0.32-0.213-1.28h-4.693v20.267q0 1.387-0.853 2.56t-2.133 1.6q-1.067 0.213-1.6 0.213-0.853 0-2.027-0.64-2.24-1.493-2.24-3.947 0-1.813 1.28-3.093t3.093-1.28q0.533 0 1.387 0.32v-4.907q-0.427-0.213-1.387-0.213-4.053 0-6.933 3.093-0.96 1.067-1.547 2.507t-0.693 2.933q-0.107 2.027 0.587 3.84t2.080 3.093l0.853 0.853q2.347 2.027 5.547 2.027 0.96 0 1.387-0.213 2.88-0.427 5.013-2.453 1.28-1.387 1.973-3.040t0.693-3.36v-10.667q1.173 0.853 2.667 1.6 2.027 0.853 4.8 0.853v-3.413z"></path>
</svg>
