<!-- Generated by IcoMoon.io -->
<svg version="1.1" xmlns="http://www.w3.org/2000/svg" width="32" height="32" viewBox="0 0 32 32"><title>viber</title>
<path d="M30.933 18.56q0.64-5.867-0.213-9.813-0.747-3.84-2.827-5.707t-6.667-2.667-9.067-0.053q-4.907 0.747-7.253 2.987-1.6 1.6-2.347 4.16-0.533 2.24-0.747 5.547-0.107 4.907 0.853 7.893 1.6 4.8 6.293 6.187v3.52q0.107 0.427 0.267 0.8t0.587 0.48 0.8-0.107 1.12-0.96l2.347-2.88q3.2 0.32 6.4-0.107 2.027-0.213 2.88-0.533h0.213q2.347-0.64 3.947-1.813 2.88-2.347 3.413-6.933zM14.507 25.92q-2.027 2.453-4.16 4.907-0.213 0.213-0.427 0.107t-0.213-0.533v-5.333q-2.773-0.747-4.16-2.987-1.067-1.707-1.387-4.48-0.107-1.493 0-4.16v-0.213q0-2.773 0.587-4.8t1.867-3.52q2.027-1.813 6.4-2.453 3.84-0.533 7.787 0.107t5.44 2.133q2.24 1.92 2.56 7.040 0.213 2.667-0.107 5.867v0.213q-0.533 3.84-2.773 5.76-1.173 0.96-3.2 1.387l-0.32 0.107q-0.533 0.213-2.453 0.533-2.667 0.427-5.44 0.213v0.107zM16.32 5.76q-0.427 0-0.427 0.373t0.427 0.373q3.093 0 5.12 2.080t2.133 5.813q0 0.427 0.427 0.427t0.427-0.427q-0.107-4.053-2.4-6.347t-5.707-2.293zM21.653 13.547q0 0.427 0.373 0.427t0.373-0.427q0-2.347-1.387-3.893t-3.947-1.76q-0.427 0-0.427 0.373t0.427 0.373q2.133 0.213 3.36 1.547t1.227 3.36zM20.693 17.067q-0.533-0.32-0.96-0.213t-0.64 0.533l-0.533 0.747q-0.213 0.213-0.533 0.32h-0.32q-2.453-0.747-4.053-3.093-0.747-1.173-0.96-2.24v-0.32q0.107-0.427 0.213-0.64l0.747-0.533q0.213-0.213 0.32-0.693t-0.107-0.907q-0.64-1.173-1.493-2.24-0.427-0.533-0.533-0.747-0.64-0.64-1.387-0.213-1.067 0.533-1.707 1.44t-0.32 1.76l0.427 0.853q0.96 2.347 1.813 3.733 1.6 2.667 3.733 4.48 1.28 1.067 3.2 2.133t2.827 1.333 1.813-0.427 1.333-1.6-0.213-1.547q-1.493-1.28-2.667-1.92zM17.6 10.773q0.96 0.107 1.44 0.64t0.587 1.493q0 0.427 0.373 0.427t0.373-0.427q-0.107-1.28-0.8-2.027t-1.867-0.853q-0.32 0-0.427 0.16t0 0.373 0.32 0.213z"></path>
</svg>
