<!-- Generated by IcoMoon.io -->
<svg version="1.1" xmlns="http://www.w3.org/2000/svg" width="32" height="32" viewBox="0 0 32 32"><title>vimeo</title>
<path d="M26.453 3.2q-3.093-0.107-5.173 1.653t-3.147 5.28q1.067-0.533 2.187-0.533t1.653 0.64 0.32 1.92q-0.213 1.493-2.027 4.48t-2.827 2.987-1.973-3.84q-0.533-2.133-1.173-6.293l-0.213-1.28q-0.32-2.56-1.387-3.733t-2.667-1.067q-1.173 0.213-3.093 1.707-1.173 0.853-3.627 3.093l-2.027 1.813 1.387 1.813 1.173-0.64q0.96-0.64 1.067-0.64 1.173 0 2.24 2.88 0.64 1.707 1.813 6.4 0.64 2.987 1.067 4.267 0.853 2.453 1.92 3.627t2.453 1.173q4.267 0 10.133-7.893 5.76-7.573 5.973-11.84 0.213-2.987-0.8-4.427t-3.253-1.547z"></path>
</svg>
