<!-- Generated by IcoMoon.io -->
<svg version="1.1" xmlns="http://www.w3.org/2000/svg" width="32" height="32" viewBox="0 0 32 32"><title>vk</title>
<path d="M26.56 17.28q-0.427-0.427-0.373-0.693t0.373-0.693l1.067-1.6q1.28-1.92 2.133-3.413 1.28-2.027 1.493-2.88 0.107-0.533-0.107-0.853t-1.067-0.32h-3.413q-1.28 0-1.493 0.853l-0.533 1.28q-0.64 1.493-1.493 2.773-1.067 1.813-2.24 3.093-0.533 0.533-0.907 0.8t-0.64 0.267-0.427-0.267-0.16-0.693v-7.040q-0.107-0.64-0.32-0.96t-0.747-0.32h-5.44q-0.427 0-0.693 0.267t-0.267 0.587 0.427 0.853 0.533 0.853q0.32 0.747 0.427 1.6v5.12q0 0.747-0.16 1.013t-0.64 0.267-1.493-1.28-2.187-3.413-1.92-4.48q-0.213-0.747-0.587-1.067t-1.013-0.32h-3.52q-1.173 0-1.173 0.96 0 0.64 0.427 2.027 0.64 1.92 1.707 4.053 1.387 2.667 3.307 5.44 2.133 2.987 4.96 4.587t5.707 1.6q1.6 0 2.080-0.32t0.48-0.96v-3.413q0-0.533 0.213-0.693t0.747-0.16q1.173 0 3.413 2.24l1.707 1.707 1.387 1.28 1.067 0.32h3.413q0.747 0 1.12-0.373t0.16-1.013q-0.427-1.28-2.667-3.733-1.173-1.28-2.667-2.773v-0.107z"></path>
</svg>
