<!-- Generated by IcoMoon.io -->
<svg version="1.1" xmlns="http://www.w3.org/2000/svg" width="32" height="32" viewBox="0 0 32 32"><title>whatsapp</title>
<path d="M22.4 18.667q-0.32-0.213-0.96-0.427-1.28-0.64-1.653-0.693t-0.587 0.373l-1.067 1.387q-0.213 0.213-0.373 0.213h-0.48l-0.427-0.32q-1.387-0.747-2.347-1.493-0.747-0.64-1.6-1.92l-0.427-0.427q-0.107-0.32-0.053-0.48t0.373-0.48q0.533-0.64 0.747-1.067 0.107-0.213 0.107-0.533v-0.107q-0.427-0.533-1.28-2.667 0-0.427-0.16-0.48t-0.373-0.053h-0.107q-0.533-0.107-0.853 0t-0.747 0.427q-1.28 1.493-1.173 3.040t1.387 3.36q1.6 2.027 2.827 3.093t2.507 1.813q0.747 0.427 2.56 1.067 1.173 0.32 2.133 0.107 0.64-0.107 1.387-0.587t0.96-1.013 0.267-1.013-0.053-0.587q0-0.32-0.533-0.533zM25.92 5.973q-3.307-3.093-7.573-3.84-3.947-0.64-7.733 0.96t-6.027 4.8q-2.453 3.52-2.453 8 0 3.627 1.92 6.933l-2.027 7.147 7.36-2.027q3.307 1.92 6.987 1.813t6.773-1.92 4.96-4.96 1.867-6.987q0-2.773-1.067-5.333t-2.987-4.587zM27.733 15.893q0 3.2-1.6 5.867t-4.267 4.16-5.76 1.493-5.973-1.707l-0.533-0.213-4.373 1.173 1.173-4.16-0.32-0.533q-1.707-2.773-1.707-5.92t1.493-5.813 4.213-4.32 6.027-1.653q4.907 0 8.107 3.52 1.707 1.493 2.613 3.627t0.907 4.48z"></path>
</svg>
