<!-- Generated by IcoMoon.io -->
<svg version="1.1" xmlns="http://www.w3.org/2000/svg" width="32" height="32" viewBox="0 0 32 32"><title>wordpress</title>
<path d="M16 1.28q-3.947 0-7.307 2.027t-5.387 5.387-2.027 7.307 2.027 7.307 5.387 5.387 7.307 2.027 7.307-1.973 5.387-5.387 2.027-7.413-1.973-7.36-5.333-5.333-7.413-1.973zM2.773 16q0-2.773 1.067-5.333l6.293 17.173q-3.307-1.6-5.333-4.8t-2.027-7.040zM16 29.227q-1.28 0-3.733-0.533l3.84-11.52 4.053 11.2h0.107q-1.813 0.853-4.267 0.853zM17.92 9.707q0.747 0 1.387-0.107 0.427-0.107 0.533-0.373t-0.053-0.48-0.587-0.213l-3.627 0.107q-0.747 0.107-2.133 0.107l-1.28-0.107q-0.427 0-0.587 0.267t0 0.533 0.48 0.267l1.28 0.107 2.133 5.653-2.88 8.64-4.587-14.4q0.64 0 1.493-0.107 0.32 0 0.427-0.267t0-0.48-0.427-0.213l-4.373 0.107q1.707-2.667 4.587-4.32t6.293-1.653q2.56 0 4.8 0.907t4.16 2.613h-0.107q-1.067 0-1.6 0.64t-0.533 1.6q0 0.64 0.32 1.387 0.213 0.427 0.747 1.387l0.213 0.32q1.067 1.6 1.067 3.733 0 0.64-0.427 2.347l-0.533 1.92-1.387 4.373zM27.627 9.6q1.6 3.2 1.6 6.4 0 3.627-1.813 6.667t-4.907 4.64l4.053-11.627q0.853-2.133 0.853-4.8 0.213-0.32 0.213-1.28z"></path>
</svg>
