<!-- Generated by IcoMoon.io -->
<svg version="1.1" xmlns="http://www.w3.org/2000/svg" width="32" height="32" viewBox="0 0 32 32"><title>youtube</title>
<path d="M30.72 8.32v0.213q-0.32-0.96-1.067-1.653t-1.707-1.013q-1.493-0.427-6.827-0.533-2.773-0.107-5.12-0.107l-5.12 0.107q-5.333 0.107-6.827 0.533-1.067 0.32-1.76 1.013t-1.013 1.653q-0.64 3.52-0.64 7.467t0.64 7.787v-0.32q0.32 0.96 1.067 1.653t1.707 1.013q1.493 0.32 6.827 0.427l5.12 0.107 5.12-0.107q5.333-0.107 6.933-0.533 0.96-0.32 1.653-1.013t1.013-1.653q0.64-3.627 0.64-7.253v-0.533q0-3.307-0.64-7.36v0.107zM12.907 20.693v-9.387l8 4.693z"></path>
</svg>
