<!-- Generated by IcoMoon.io -->
<svg version="1.1" xmlns="http://www.w3.org/2000/svg" width="32" height="32" viewBox="0 0 32 32"><title>dribbble</title>
<path d="M16 1.28q-3.947 0-7.307 2.027t-5.387 5.387-2.027 7.307 2.027 7.307 5.387 5.387 7.307 2.027 7.307-1.973 5.387-5.387 2.027-7.413-1.973-7.36-5.333-5.333-7.413-1.973zM25.493 8.32q2.667 3.52 2.667 7.253-4.587-0.96-8.107-0.107-0.32-0.427-0.693-1.44t-0.693-1.44q4.267-1.707 6.827-4.267zM24 6.507q-2.56 2.347-6.4 3.947-1.387-2.773-3.733-5.973l-0.427-0.64q1.6-0.213 2.56-0.213 4.16 0 8 2.88zM11.093 4.8q1.387 1.707 4.267 6.507-2.987 0.96-6.507 1.493-2.027 0.213-4.8 0.427 0.64-2.88 2.507-5.12t4.533-3.307zM3.627 15.467q3.627 0 7.573-0.747 3.307-0.747 5.227-1.387 0.427 0.853 1.173 2.667-2.987 1.067-5.76 2.773-1.707 1.173-3.2 2.667-1.28 1.173-2.133 2.347-1.387-1.707-2.133-3.733t-0.747-4.267v-0.32zM8.32 25.6q2.027-2.773 5.013-4.693t5.227-2.667q1.813 4.693 2.347 8.96-2.56 1.067-5.013 1.067-2.027 0.107-4.053-0.64-1.813-0.747-3.52-2.027zM23.253 25.92q-0.747-3.947-2.347-8.213 3.84-0.64 7.253 0.32-0.427 2.347-1.76 4.427t-3.253 3.467h0.107z"></path>
</svg>
