<!-- Generated by IcoMoon.io -->
<svg version="1.1" xmlns="http://www.w3.org/2000/svg" width="32" height="32" viewBox="0 0 32 32"><title>dropbox</title>
<path d="M16 6.827l8.64 5.12 6.080-4.48-8.747-5.44zM16 6.827l-5.973-4.8-8.747 5.44 6.080 4.693zM16 17.173l5.973 4.907 8.747-5.44-6.080-4.693-8.64 5.227-8.64-5.227-6.080 4.693 8.747 5.44zM25.173 24.747v-2.453l-2.667 1.707q-0.107 0.107-0.427 0.107t-0.533-0.107l-0.213-0.107-5.333-4.267-5.333 4.373q-0.533 0.427-1.067 0.107l-2.667-1.707v2.56l9.173 5.12z"></path>
</svg>
