<!-- Generated by IcoMoon.io -->
<svg version="1.1" xmlns="http://www.w3.org/2000/svg" width="32" height="32" viewBox="0 0 32 32"><title>evernote</title>
<path d="M3.733 8.96q0.427-0.213 0.747-0.213l3.413-0.107q1.493 0.107 1.92 0 0.747-0.107 1.013-0.427t0.267-1.173v-4.693q0-0.747 0.213-1.28v-0.107q0-0.107-0.427 0.427-2.453 2.667-7.147 7.573zM3.52 16.427q0.32 1.92 1.173 3.2 0.427 0.64 0.747 0.853 1.173 1.28 2.987 2.027 1.6 0.64 3.147 0.747t2.293-0.32q0.96-0.64 1.813-2.773 0.427-0.96 0.64-1.92 0 1.6 1.6 2.56 1.173 0.747 2.347 0.96 0.427 0 0.853 0.107 2.133 0.533 2.88 2.347 0.427 0.853 0.427 1.6 0 1.387-0.853 2.293t-2.080 1.013-1.973-0.747q-0.427-0.427-0.427-1.013t0.427-1.013q0.107-0.107 0.747-0.213l0.533-0.107q0.32-0.213 0.48-0.48t0.16-0.48-0.107-0.107q0-0.853-0.747-1.12t-1.813 0.16-1.813 1.387-0.747 2.347q0 2.133 1.76 3.307t4.213 0.96 4.16-2.027q2.133-2.133 2.56-5.76 0.107 0 0.32-2.453 0.213-2.987 0-6.293-0.107-4.373-0.853-8.32-0.427-2.133-2.24-3.093-0.96-0.64-2.987-0.96l-4.907-0.853-0.107-0.427q-0.213-0.533-0.64-0.96t-1.067-0.64l-1.067-0.213h-1.067q-0.96 0-1.6 0.533t-0.64 1.28q-0.107 1.813-0.107 4.16 0 1.707-0.053 2.293t-0.427 0.96-1.227 0.48q-0.533 0.107-2.133 0h-3.733q-0.747 0.107-1.227 0.693t-0.48 1.547q0.107 1.813 0.853 4.48zM22.080 14.507q0.32-0.64 1.12-0.853t1.547 0.16 0.853 1.12q0 0.533-0.107 0.533-0.427 0.107-1.867-0.053t-1.44-0.48v-0.427h-0.107z"></path>
</svg>
