<!-- Generated by IcoMoon.io -->
<svg version="1.1" xmlns="http://www.w3.org/2000/svg" width="32" height="32" viewBox="0 0 32 32"><title>foursquare</title>
<path d="M4.693 2.88v27.093q0 1.387 1.067 1.92 0.427 0.107 1.013 0.053t1.013-0.48l8.107-9.493q0.107-0.213 0.32-0.107h5.227q2.347 0 2.667-2.56l2.987-15.147q0.427-2.133-0.213-3.147t-2.453-1.013h-16.747q-1.493 0-2.347 1.067-0.64 0.747-0.64 1.92v-0.107zM8.32 4.48q0-0.32 0.267-0.693t0.8-0.373h13.44q0.427 0 0.64 0.373t0.107 0.693l-0.64 3.733q-0.107 0.427-0.373 0.64t-0.693 0.213h-6.507q-0.64 0-1.013 0.373t-0.373 0.907v0.853q0 0.64 0.373 0.96t1.013 0.32h5.547q0.427 0 0.747 0.373t0.213 0.907l-0.427 1.92q-0.213 1.493-0.213 1.76t-0.32 0.533-0.747 0.267h-4.587q-0.533 0-0.853 0.16t-0.747 0.693l-5.44 6.72h-0.107z"></path>
</svg>
