<!-- Generated by IcoMoon.io -->
<svg version="1.1" xmlns="http://www.w3.org/2000/svg" width="32" height="32" viewBox="0 0 32 32"><title>kickstarter</title>
<path d="M4.267 7.040q0-2.24 1.173-3.627t3.2-1.387 3.307 1.28 1.28 3.733v4.48l5.013-7.36q0.96-1.387 2.187-1.867t2.507-0.16 2.24 1.173q1.28 1.173 1.333 2.827t-0.8 2.827l-4.48 6.613 5.44 7.147q0.96 1.067 0.853 2.773t-1.387 2.88q-0.853 0.96-2.080 1.227t-2.4-0.053-1.813-1.173l-6.72-8.64v4.8q0 2.667-1.173 4t-3.093 1.333q-2.24 0-3.413-1.493t-1.173-3.733v-17.6z"></path>
</svg>
