<!-- Generated by IcoMoon.io -->
<svg version="1.1" xmlns="http://www.w3.org/2000/svg" width="32" height="32" viewBox="0 0 32 32"><title>linkedin</title>
<path d="M29.973 29.973v-10.24q0-4.373-1.28-6.4-1.6-2.56-5.653-2.56-1.92 0-3.36 0.907t-2.080 2.187h-0.107v-2.56h-5.653v18.667h5.867v-9.173q0-2.24 0.64-3.307 0.747-1.493 2.773-1.493t2.667 1.707q0.533 0.96 0.533 3.2v9.067h5.653zM2.56 11.307h5.867v18.667h-5.867v-18.667zM5.333 2.027q-1.387 0-2.347 0.96t-0.96 2.347 0.96 2.4 2.347 1.013 2.453-1.013 1.067-2.4-1.067-2.347-2.453-0.96z"></path>
</svg>
