<!-- Generated by IcoMoon.io -->
<svg version="1.1" xmlns="http://www.w3.org/2000/svg" width="32" height="32" viewBox="0 0 32 32"><title>medium</title>
<path d="M27.733 7.467l2.24-2.133v-0.427h-7.68l-5.44 13.76-6.293-13.76h-8.107v0.427l2.453 3.2q0.427 0.427 0.427 0.96v12.373q0.107 0.32 0 0.64t-0.427 0.747l-2.88 3.413v0.533h8.213v-0.533l-2.88-3.52q-0.64-0.533-0.427-1.28v-10.773l7.36 16h0.747l6.293-16v13.013l-0.213 0.213-2.027 2.347v0.533h10.88v-0.533l-2.24-2.133q-0.32-0.107-0.32-0.533v-15.893q0-0.107 0.32-0.64z"></path>
</svg>
