<!-- Generated by IcoMoon.io -->
<svg version="1.1" xmlns="http://www.w3.org/2000/svg" width="32" height="32" viewBox="0 0 32 32"><title>paypal</title>
<path d="M24.853 3.52q-0.96-1.173-2.72-1.653t-4.213-0.48h-9.28q-0.427 0-0.8 0.32t-0.48 0.747l-3.84 24.107q-0.107 0.32 0.107 0.533t0.64 0.213h5.653l1.387-8.853v0.213q0.107-0.533 0.48-0.8t0.907-0.267h2.667q4.16 0 6.827-1.813 2.987-2.133 3.84-6.4 0-0.32 0.107-0.533 0.213-1.813-0.107-2.987t-1.173-2.347zM27.52 10.027q-1.067 4.587-4.16 6.933t-8.107 2.347h-2.453l-1.707 11.307h3.84q0.533 0 0.8-0.213t0.267-0.64v-0.32l0.853-5.547v-0.427q0-0.427 0.32-0.693t0.747-0.267h0.747q3.733 0 5.973-1.6 2.56-1.813 3.413-5.547 0.96-3.627-0.533-5.333z"></path>
</svg>
