<!-- Generated by IcoMoon.io -->
<svg version="1.1" xmlns="http://www.w3.org/2000/svg" width="32" height="32" viewBox="0 0 32 32"><title>reddit</title>
<path d="M28.373 12.373q-1.493 0-2.453 1.067-2.027-1.28-4.16-1.92-2.56-0.853-5.12-0.853l1.92-8.533 5.973 1.387q0 1.067 0.8 1.867t1.867 0.8 1.867-0.8 0.8-1.92-0.8-1.92-1.867-0.8q-0.747 0-1.44 0.427t-0.907 1.067l-6.613-1.493q-0.213 0-0.427 0.16t-0.32 0.373l-2.027 9.493q-2.667 0.107-5.013 0.853t-4.16 2.133q-1.173-1.387-2.667-1.387-1.813 0-2.827 1.333t-0.693 2.987 1.92 2.507q-0.107 0.533-0.107 1.707 0 2.88 1.867 5.227t5.12 3.787 7.093 1.44 7.147-1.44 5.227-3.787 1.92-5.227q0-1.173-0.32-1.707 1.707-0.853 1.973-2.507t-0.747-2.987-2.827-1.333zM7.467 19.627q0-1.173 0.8-1.92t1.867-0.747 1.867 0.747 0.8 1.867-0.8 1.92-1.867 0.8-1.867-0.8-0.8-1.867zM21.867 26.027q-1.173 1.173-3.52 1.653t-4.747 0-3.573-1.653q-0.213-0.213-0.213-0.48t0.213-0.48 0.48-0.213 0.373 0.213q0.96 0.96 2.987 1.333t4.107 0 2.933-1.333q0.213-0.213 0.48-0.213t0.48 0.213 0.213 0.48-0.213 0.48zM21.867 22.293q-1.067 0-1.867-0.8t-0.8-1.92 0.8-1.867 1.867-0.747 1.867 0.747 0.8 1.867-0.8 1.92-1.867 0.8z"></path>
</svg>
