<!-- Generated by IcoMoon.io -->
<svg version="1.1" xmlns="http://www.w3.org/2000/svg" width="32" height="32" viewBox="0 0 32 32"><title>skype</title>
<path d="M29.227 18.88q0.96-4.373-1.013-8.32t-5.867-6.027-8.48-1.333q-2.453-1.6-5.28-1.12t-4.693 2.56-1.867 4.96q0 1.92 1.067 3.84-0.96 4.48 1.013 8.373t5.92 5.973 8.533 1.333q2.347 1.173 4.8 0.747t4.267-2.080 2.293-4.053-0.693-4.747v-0.107zM20.267 24.533q-1.813 0.853-4.48 0.8t-4.373-1.013-2.56-2.4-0.48-2.56 1.867-1.12q0.853 0 1.28 0.533 0.32 0.213 0.693 1.067t0.693 1.173q0.427 0.64 1.28 1.013t2.24 0.32 2.347-0.693 1.013-1.547-0.533-1.44-1.653-0.853q-0.64-0.213-2.133-0.533-2.133-0.427-3.2-0.853-1.707-0.747-2.613-1.867t-0.96-2.613 0.907-2.667q1.173-1.387 3.413-1.973t4.587-0.32 3.68 1.333 1.653 2.187-0.213 1.92-1.6 0.8q-0.747 0-1.28-0.427-0.213-0.213-0.64-0.96-0.533-0.96-1.067-1.387-0.853-0.533-2.347-0.533t-2.4 0.533-0.853 1.333 1.12 1.333q0.747 0.32 3.040 0.853t3.36 0.853q1.813 0.64 2.667 1.707 1.173 1.173 1.173 2.987t-0.96 3.040-2.667 1.973z"></path>
</svg>
