<!-- Generated by IcoMoon.io -->
<svg version="1.1" xmlns="http://www.w3.org/2000/svg" width="32" height="32" viewBox="0 0 32 32"><title>slack</title>
<path d="M12.267 16.747q-1.173 0-2.027 0.907t-0.853 2.080v7.36q0 1.173 0.853 2.027t2.027 0.853 2.080-0.853 0.907-2.027v-7.36q0-1.173-0.907-2.080t-2.080-0.907zM2.027 19.733q0 1.173 0.853 2.027t2.027 0.853 2.080-0.853 0.907-2.027v-2.987h-2.987q-1.173 0-2.027 0.907t-0.853 2.080zM12.267 2.027q-1.173 0-2.027 0.853t-0.853 2.027 0.853 2.080 2.027 0.907h2.987v-2.987q0-1.173-0.907-2.027t-2.080-0.853zM4.907 15.36h7.36q1.173 0 2.027-0.907t0.853-2.080-0.853-2.027-2.027-0.853h-7.36q-1.173-0.107-2.027 0.747t-0.853 2.027 0.853 2.133 2.027 0.96zM27.093 9.28q-1.173 0-2.080 0.907t-0.907 2.080v2.88h2.987q1.173 0 2.027-0.853t0.853-2.027-0.853-2.080-2.027-0.907zM16.64 4.907v7.36q0 1.173 0.907 2.027t2.080 0.853 2.027-0.853 0.853-2.027v-7.36q0-1.173-0.853-2.027t-2.027-0.853-2.080 0.853-0.907 2.027zM22.72 27.093q0-1.173-0.907-2.080t-2.080-0.907h-2.88v2.987q0 1.173 0.853 2.027t2.027 0.853 2.080-0.853 0.907-2.027zM27.093 16.64h-7.36q-1.173 0-2.027 0.853t-0.853 2.080 0.853 2.080 2.027 0.853h7.36q1.173 0 2.027-0.853t0.853-2.080-0.853-2.080-2.027-0.853z"></path>
</svg>
