<!-- Generated by IcoMoon.io -->
<svg version="1.1" xmlns="http://www.w3.org/2000/svg" width="32" height="32" viewBox="0 0 32 32"><title>steam</title>
<path d="M23.253 3.52q-2.027 0-3.733 0.96t-2.773 2.667-1.067 3.627l-4.587 6.507q-1.92-0.107-3.52 0.853l-6.293-2.56v6.933l3.733 1.493q0.427 1.813 1.973 3.093t3.36 1.28q2.24 0 3.787-1.44t1.76-3.573l7.147-5.227q1.493 0 2.88-0.587t2.453-1.6 1.6-2.4 0.533-2.88q0.107-1.92-0.853-3.573t-2.72-2.667-3.787-1.013zM6.933 24.96l2.027 0.747q1.28 0.64 2.453 0.107t1.76-1.813 0.053-2.507-1.92-1.653l-1.707-0.747q1.28-0.32 2.453 0.107t1.92 1.493 0.747 2.347q0 0.853-0.96 1.76t-2.293 1.44-2.56 0.267-1.973-1.547zM23.253 15.893q-2.133 0-3.627-1.44t-1.493-3.573 1.44-3.627 3.52-1.493 3.627 1.493 1.547 3.573-1.493 3.573-3.627 1.493h0.107zM23.253 6.933q-1.6 0-2.827 1.173t-1.227 2.773 1.227 2.827 2.773 1.227 2.773-1.227 1.227-2.827-1.173-2.773-2.773-1.173z"></path>
</svg>
