<!-- Generated by IcoMoon.io -->
<svg version="1.1" xmlns="http://www.w3.org/2000/svg" width="32" height="32" viewBox="0 0 32 32"><title>tinder</title>
<path d="M16.853 0q0.427 0.533 0.747 0.64 3.947 3.733 6.4 7.573 2.88 4.48 3.733 9.173 0.32 2.027 0.32 3.733 0 2.24-0.64 3.733-1.067 3.413-3.413 5.067t-6.293 1.973q-4.8 0.32-8.16-1.013t-4.747-4.107-0.64-6.613 3.84-8.107l1.493-2.027q0.96-1.28 1.173-1.387 0 2.987 1.6 5.013 0 0.107 0.107 0.107 2.24-1.707 3.413-3.307 1.387-2.027 1.707-4.267 0.533-3.2-0.747-6.187h0.107z"></path>
</svg>
