<!-- Generated by IcoMoon.io -->
<svg version="1.1" xmlns="http://www.w3.org/2000/svg" width="32" height="32" viewBox="0 0 32 32"><title>trello</title>
<path d="M26.56 2.027h-21.12q-1.493 0-2.453 0.96t-0.96 2.453v21.12q0 1.493 0.96 2.453t2.453 0.96h21.12q1.493 0 2.453-0.96t0.96-2.453v-21.12q0-1.493-0.96-2.453t-2.453-0.96zM14.080 23.147q0 0.747-0.427 1.173t-1.173 0.427h-5.12q-0.747 0-1.173-0.427t-0.427-1.173v-15.787q0-0.747 0.427-1.173t1.173-0.427h5.013q0.747 0 1.173 0.427t0.427 1.173v15.787h0.107zM26.453 16.32q0 0.64-0.48 1.12t-1.227 0.48h-5.12q-0.747 0-1.173-0.48t-0.427-1.12v-8.96q0-0.747 0.427-1.173t1.173-0.427h5.227q0.64 0 1.12 0.427t0.48 1.173v8.96z"></path>
</svg>
