<!-- Generated by IcoMoon.io -->
<svg version="1.1" xmlns="http://www.w3.org/2000/svg" width="32" height="32" viewBox="0 0 32 32"><title>yelp</title>
<path d="M16.107 23.573q0-0.533-0.427-0.96t-1.013-0.427-0.907 0.533l-1.92 2.24q-2.773 3.307-2.88 3.733-0.32 0.853 0.747 1.6 0.64 0.427 2.133 0.96l0.107 0.107q2.347 0.853 3.2 0.64l0.64-0.213q0.213-0.213 0.32-0.427v-7.787zM15.36 0.747q-0.213-0.533-0.853-0.747t-2.293 0.107-3.253 0.907-2.027 1.12q-0.32 0.213-0.373 0.48t-0.053 0.693l6.72 10.667q0.64 1.067 1.333 1.28t1.173-0.427 0.427-1.813-0.373-6.507-0.427-5.76zM12.48 20.267q0.64-0.213 0.853-0.747t0.053-1.12-0.693-0.8q-2.24-0.96-4.587-1.867t-2.56-0.907q-0.747-0.107-1.067 0.747-0.213 0.533-0.32 1.813v0.213q-0.213 1.067-0.213 3.093l0.32 1.28q0.32 0.64 0.96 0.747 0.533-0.213 3.893-1.28t3.36-1.173zM27.307 16.107q0.533-0.32 0.427-0.96v-0.107q-0.107-0.96-1.387-2.933t-2.24-2.4q-0.213-0.107-0.48-0.107t-0.693 0.107q-0.213 0.213-3.093 4.16l-1.493 2.027q-0.32 0.533-0.213 1.12t0.64 0.907 1.067 0.107l0.853-0.213q6.4-1.6 6.613-1.707zM20.373 20.8q-0.533-0.213-1.067 0.107t-0.693 0.907 0.16 1.12l2.027 3.307q1.813 3.093 2.027 3.2 0.32 0.427 1.067 0.107 0.853-0.32 2.347-2.24t1.6-2.88q0.213-0.64-0.32-1.067-0.107-0.213-3.627-1.387z"></path>
</svg>
