<svg xmlns="http://www.w3.org/2000/svg" width="32" height="32" viewBox="0 0 1024 1024"><g transform="translate(40,320) scale(-0.94,0.94) translate(-1024,0)"><path fill="#005a8c" d="M297.6 482.133c-24.533-25.6-58.667-80-146.133-236.8-13.867-26.667-44.8-78.933-66.133-117.333-77.867-133.333-85.333-150.4-85.333-177.067 0-16 11.733-37.333 28.8-52.267 28.8-24.533 36.267-25.6 182.4-26.667 174.933 0 155.733-8.533 237.867 114.133 46.933 71.467 50.133 110.933 10.667 146.133-17.067 14.933-21.333 11.733-59.733-55.467-65.067-114.133-56.533-108.8-183.467-108.8-59.733 0-109.867 3.2-109.867 6.4 0 9.6 57.6 114.133 142.933 259.2 38.4 66.133 70.4 124.8 70.4 129.067s7.467 13.867 16 21.333c18.133 14.933 30.933 3.2 60.8-53.333 7.467-14.933 42.667-78.933 77.867-144 35.2-64 78.933-145.067 96-179.2 35.2-69.333 93.867-135.467 118.4-135.467 46.933 0 76.8 40.533 204.8 266.667 13.867 26.667 50.133 87.467 77.867 136.533 45.867 76.8 52.267 96 52.267 148.267 0 85.333-6.4 87.467-186.667 87.467-171.733 1.067-171.733 1.067-232.533-97.067-50.133-78.933-57.6-107.733-35.2-141.867 9.6-14.933 22.4-26.667 26.667-26.667 5.333 0 26.667 27.733 48 61.867 71.467 117.333 57.6 108.8 182.4 108.8 61.867 0 112-3.2 112-7.467 0-5.333-22.4-46.933-49.067-93.867-27.733-46.933-64-112-82.133-144-17.067-32-41.6-75.733-54.4-96-11.733-20.267-26.667-45.867-33.067-57.6-5.333-11.733-16-22.4-21.333-24.533-9.6-3.2-74.667 104.533-181.333 300.8-87.467 161.067-103.467 185.6-126.933 201.6-37.333 23.467-60.8 20.267-92.8-12.8z"/></g></svg>
